<?xml version="1.0" encoding="UTF-8"?>
<svg width="280px" height="80px" viewBox="0 0 560 158" version="1.1" xmlns="http://www.w3.org/2000/svg" xmlns:xlink="http://www.w3.org/1999/xlink">
    <g stroke="none" stroke-width="1" fill="none" fill-rule="evenodd">
        <g fill-rule="nonzero" stroke="#FFFFFF" stroke-width="4">
            <path d="M59.8,42.8818931 L59.8,5.2 L90.5,5.2 L90.5,120.5 L59.8,120.5 L59.8,113.300313 C57.5988452,115.39908 55.1282335,117.109861 52.3926312,118.427003 C48.0625728,120.511846 43.1912362,121.55 37.8,121.55 C29.9410483,121.55 22.9783564,119.703832 16.9534739,116.004342 C10.9283893,112.304729 6.24772837,107.09518 2.933333,100.41378 C-0.359722566,93.7753978 -2,86.146806 -2,77.55 C-2,69.0518173 -0.384237171,61.5463384 2.86114562,55.0555728 C6.12720943,48.5234452 10.7349988,43.438988 16.6620437,39.840425 C22.5855758,36.2439948 29.4449677,34.45 37.2,34.45 C42.6918185,34.45 47.6634472,35.51345 52.0932838,37.648311 C54.936351,39.0184639 57.5067692,40.7644566 59.8,42.8818931 Z M44.4,96.55 C49.0233587,96.55 52.6646043,94.9244439 55.4786267,91.6267615 C58.3516006,88.2599952 59.8,83.8469033 59.8,78.3 C59.8,72.6550113 58.3520695,68.220724 55.4872737,64.9083039 C52.6740401,61.6555025 49.0291154,60.05 44.4,60.05 C39.7724292,60.05 36.1012756,61.6792102 33.2363782,64.9848611 C30.3193654,68.3506451 28.85,72.7587412 28.85,78.3 C28.85,83.8412588 30.3193654,88.2493549 33.2363782,91.6151389 C36.1012756,94.9207898 39.7724292,96.55 44.4,96.55 Z M153.508234,67.75 C153.292174,64.994901 152.237381,62.9267529 150.332837,61.4174918 C148.079455,59.6317927 144.685067,58.7 140.1,58.7 C136.88117,58.7 133.221452,59.226234 129.126134,60.2861986 C125.008927,61.3518285 120.859638,62.9047789 116.677671,64.947135 L114.756613,65.8853257 L105.871246,44.1252432 L107.622394,43.329267 C114.334544,40.27829 120.779573,38.0110662 126.958862,36.5300796 C133.163267,35.0430735 139.594696,34.3 146.25,34.3 C157.883253,34.3 167.032314,37.0079118 173.627926,42.4865254 C180.299441,48.0281868 183.693811,55.8136863 183.8,65.7 L183.8,120.5 L153.55,120.5 L153.55,114.364376 C147.944904,119.258335 140.427434,121.7 131.1,121.7 C122.020016,121.7 114.753315,119.206261 109.405649,114.182696 C104.039731,109.141985 101.35,102.48558 101.35,94.35 C101.35,86.0630199 104.283099,79.4841053 110.12206,74.7911092 C115.862846,70.1770196 123.966185,67.8542381 134.4,67.75 L153.508234,67.75 Z M153.55,90.7849639 L153.55,86 L139.65,86 C133.14882,86 130.4,88.052452 130.4,92.4 C130.4,94.6265068 131.128391,96.2887333 132.616884,97.5482274 C134.174123,98.8658906 136.392296,99.55 139.35,99.55 C142.973858,99.55 146.094566,98.6806599 148.760023,96.9481128 C151.274218,95.3138864 152.845368,93.2775741 153.55,90.7849639 Z M212.85,30.5 C208.224731,30.5 204.332568,28.9431347 201.297632,25.8509354 C198.272031,22.7682477 196.75,18.8626589 196.75,14.25 C196.75,9.53549766 198.273072,5.59850128 201.310786,2.56078644 C204.345728,-0.474155535 208.232313,-2 212.85,-2 C217.467687,-2 221.354272,-0.474155535 224.389214,2.56078644 C227.426928,5.59850128 228.95,9.53549766 228.95,14.25 C228.95,18.8626589 227.427969,22.7682477 224.402368,25.8509354 C221.367432,28.9431347 217.475269,30.5 212.85,30.5 Z M228.35,35.35 L228.35,120.5 L197.8,120.5 L197.8,35.35 L228.35,35.35 Z M275.55,121.7 C268.451761,121.7 261.652409,120.69555 255.158633,118.685572 C248.632598,116.665609 242.817317,113.680085 237.724353,109.73044 L236.440649,108.734914 L246.574551,87.924222 L248.492129,89.2581896 C252.943581,92.3548522 257.604992,94.7459384 262.479864,96.4352504 C267.327605,98.1151607 271.883442,98.95 276.15,98.95 C278.439509,98.95 280.192243,98.5910064 281.413335,97.9213752 C282.341791,97.4122216 282.7,96.8460208 282.7,96 C282.7,94.8238286 282.052689,93.9319776 280.44658,93.1467687 C278.334248,92.1140732 274.914996,90.9500727 270.17839,89.6665755 C264.401582,87.943668 259.6231,86.2406982 255.835433,84.5516038 C251.85185,82.7751411 248.381382,80.1117584 245.438557,76.5803688 C242.370232,72.898378 240.85,68.1441986 240.85,62.4 C240.85,53.5806309 244.237794,46.5591544 250.95,41.525 C257.520343,36.5972428 265.940963,34.15 276.15,34.15 C282.231741,34.15 288.237084,34.9747681 294.161152,36.6232044 C300.087904,38.2723877 305.68205,40.6956584 310.938831,43.8909561 L312.534125,44.8606451 L301.752829,65.7044854 L299.971986,64.7716631 C289.732735,59.4082457 281.419675,56.75 275.1,56.75 C273.140076,56.75 271.643238,57.0938681 270.587956,57.734575 C269.792196,58.2177151 269.45,58.841001 269.45,59.85 C269.45,60.8082151 270.068098,61.6229813 271.644427,62.4111456 C273.700216,63.4390399 277.090401,64.6013892 281.812541,65.8807429 C287.683765,67.601619 292.581726,69.3019473 296.512839,70.9867099 C300.655172,72.7619957 304.234954,75.453561 307.234564,79.0423797 C310.354377,82.7750138 311.9,87.6050854 311.9,93.45 C311.9,102.280008 308.42738,109.307277 301.556625,114.338617 C294.837247,119.259107 286.149768,121.7 275.55,121.7 Z M342.490753,116.463474 L308.078976,35.35 L339.947121,35.35 L357.791552,84.0417816 L373.699379,35.35 L404.628279,35.35 L403.562948,38.077616 L368.751869,127.205368 C365.515366,135.14002 361.136684,141.074981 355.599037,144.961984 C350.043629,148.861452 343.192324,150.8 335.1,150.8 C330.382014,150.8 325.961044,150.089487 321.845779,148.664972 C317.729066,147.239956 313.735207,145.006548 309.866237,141.974112 L308.474965,140.883655 L321.694904,118.909973 L323.488271,120.420178 C325.240144,121.895438 326.86895,122.936064 328.3615,123.550644 C329.817862,124.150323 331.359061,124.45 333,124.45 C336.638371,124.45 339.207256,122.829627 340.975566,119.377295 L342.490753,116.463474 Z" fill="#5A0EF8"></path>
            <path d="M456.9,122.45 C446.996288,122.45 438.260382,120.53173 430.71586,116.681422 C423.124154,112.807034 417.237033,107.261576 413.092418,100.07408 C408.960331,92.9083086 406.9,84.5887434 406.9,75.15 L406.9,11.35 L438.35,11.35 L438.35,75.15 C438.35,81.2504 440.114433,86.0460384 443.632,89.6537997 C447.14774,93.259687 451.578765,95.05 457.05,95.05 C462.406129,95.05 466.645091,93.2967121 469.906106,89.7676677 C473.191831,86.2118832 474.85,81.3736644 474.85,75.15 L474.85,11.35 L506.3,11.35 L506.3,75.15 C506.3,84.5810767 504.293577,92.8934018 500.268491,100.054918 C496.226045,107.247322 490.438547,112.798059 482.944184,116.67626 C475.496024,120.530553 466.806635,122.45 456.9,122.45 Z M552.5,120.5 L521.05,120.5 L521.05,11.35 L552.5,11.35 L552.5,120.5 Z" fill="#2D3748"></path>
        </g>
    </g>
</svg>