<?xml version="1.0" encoding="UTF-8"?>
<svg width="203px" height="89px" viewBox="0 0 203 89" version="1.1" xmlns="http://www.w3.org/2000/svg" xmlns:xlink="http://www.w3.org/1999/xlink">
    <defs>
        <path d="M26.1241964,59.629274 C26.9257977,59.6690712 27.707359,59.5795274 28.4688803,59.3606427 C29.2304015,59.141758 29.9418227,58.8631775 30.6031438,58.5249012 C31.2644649,58.1866248 31.8656658,57.8284499 32.4067467,57.4503763 C32.9478276,57.0723027 33.3987284,56.7240771 33.759449,56.4056994 C36.0440127,54.5750274 38.1181561,52.5155214 39.9818792,50.2271814 C41.8456023,47.9388414 43.6391852,45.6206535 45.362628,43.2726176 L45.362628,43.2726176 L45.362628,43.2129218 L47.1061109,40.8250888 C47.3465913,40.5465083 47.3465913,40.2181812 47.1061109,39.8401076 C46.8656305,39.4620341 46.54499,39.133707 46.1441893,38.8551265 C45.7433887,38.576546 45.322548,38.3875092 44.8816673,38.2880162 C44.4407865,38.1885231 44.140186,38.2382696 43.9798658,38.4372557 C43.8195455,38.7158363 43.6592252,38.9745182 43.498905,39.2133015 C43.3385847,39.4520848 43.0981043,39.7306653 42.7774638,40.049043 C41.8957023,41.2827568 40.9638408,42.566217 39.9818792,43.8994238 C38.9999176,45.2326306 37.9778759,46.4862429 36.9157542,47.6602608 C35.8536324,48.8342788 34.7614506,49.8789557 33.6392088,50.7942917 C32.5169669,51.7096277 31.354645,52.3662818 30.152243,52.764254 L30.152243,52.764254 L29.551042,52.764254 C29.6712822,52.6846595 29.7714824,52.4657748 29.8516425,52.1075999 C30.0119628,51.2718583 30.3225833,50.2769279 30.7835041,49.1228086 C31.2444248,47.9686893 31.8155658,46.81457 32.4969269,45.6604507 L32.4969269,45.6604507 L32.6171671,45.6604507 C34.1402096,42.5562677 35.7434122,39.6510709 37.426775,36.9448601 C39.1101378,34.2386493 40.7935005,31.6319316 42.4768633,29.1247069 L42.4768633,29.1247069 L42.4167432,29.1844027 L44.5209467,25.9011323 C45.4027081,24.5480269 46.3345696,23.1053778 47.3165313,21.5731849 C48.2984929,20.040992 49.2203344,18.5784443 50.0820558,17.1855417 C50.9437772,15.7926391 51.6952785,14.5390267 52.3365595,13.4247046 C52.9778406,12.3103826 53.4187213,11.5144382 53.6592017,11.0368716 C54.1000824,10.1613328 54.1401625,9.24599683 53.7794419,8.29086361 C53.4187213,7.3357304 52.8776404,6.50993814 52.1561992,5.81348683 C51.434758,5.11703553 50.6331567,4.59967171 49.7513953,4.26139536 C48.8696338,3.92311901 48.1281526,3.91316971 47.5269516,4.23154745 C47.0459908,5.38566675 46.4748499,6.66912701 45.8135288,8.08192822 C45.1522077,9.49472944 44.4107265,10.9672265 43.5890851,12.4994193 C42.7674438,14.0316122 41.8856823,15.593653 40.9438008,17.1855417 C40.0019192,18.7774304 39.0299776,20.3096232 38.027976,21.7821203 L38.027976,21.7821203 L35.7434122,25.2444782 L35.2023313,26.0205239 C34.6412104,25.1051879 33.8195691,24.4485338 32.7374073,24.0505617 C32.1762864,23.8913728 31.6552455,23.7719812 31.1742847,23.6923867 C30.6933239,23.6127923 30.1923231,23.5729951 29.6712822,23.5729951 C27.9077593,23.5729951 26.1342164,23.9510686 24.3506535,24.7072158 C22.5670905,25.4633629 20.8135877,26.4781919 19.0901448,27.7517029 C17.366702,29.0252138 15.7334393,30.4778123 14.1903568,32.1094982 C12.6472742,33.7411841 11.2344519,35.4325658 9.95188979,37.1836434 C8.66932768,38.934721 7.56712587,40.6857985 6.64528435,42.4368761 C5.72344284,44.1879536 5.06212175,45.7997409 4.66132109,47.272238 C4.46092076,47.829399 4.28056046,48.5457489 4.1202402,49.4212877 C4,50.3764209 3.96993995,51.4011993 4.03006005,52.4956228 C4.09018015,53.5900462 4.34068056,54.6148246 4.78156129,55.5699578 C5.22244201,56.525091 5.89378312,57.3508833 6.7955846,58.0473346 C7.69738608,58.7437859 8.90980808,59.171606 10.4328506,59.3307948 C12.1162134,59.2909976 13.8797363,58.6641914 15.7234193,57.4503763 C17.5671023,56.2365612 19.3907453,54.7939121 21.1943483,53.1224289 C20.993948,54.9133037 21.2845284,56.4056994 22.0660897,57.5996159 C22.847651,58.7935324 24.2003532,59.4700851 26.1241964,59.629274 Z M15.3626987,51.8688166 C14.7214176,52.0280054 14.2204168,52.0678027 13.8596962,51.9882082 C13.4989756,51.9086138 13.2284352,51.7295263 13.0480749,51.4509458 C12.8677146,51.1723653 12.7775344,50.8340889 12.7775344,50.4361168 C12.7775344,50.0381446 12.8176145,49.6202738 12.8977746,49.1825044 C12.9779348,48.5457489 13.118215,47.8990442 13.3186153,47.2423901 C13.5190157,46.585736 13.719416,46.0385242 13.9198163,45.6007549 C14.6011774,44.0486634 15.533039,42.3174844 16.7154009,40.407218 C17.8977629,38.4969516 19.210385,36.7060768 20.6532674,35.0345937 C22.0961498,33.3631105 23.5991522,31.9801572 25.1622748,30.8857337 C26.7253974,29.7913103 28.2484399,29.2639971 29.7314023,29.3037944 C30.4127635,29.3833888 30.8837042,29.6420707 31.1442247,30.0798401 C31.4047451,30.5176095 31.5750854,31.0349733 31.6552455,31.6319316 C29.9718827,34.2585479 28.4288002,36.9050629 27.0259979,39.5714764 L27.0259979,39.5714764 L26.0039562,41.6011345 C25.282515,42.5164705 24.4308136,43.5412489 23.448852,44.6754695 C22.4668904,45.8096902 21.4749087,46.8842151 20.4729071,47.8990442 C19.4709055,48.9138732 18.5089839,49.789412 17.5871424,50.5256605 C16.6653008,51.261909 15.9238196,51.7096277 15.3626987,51.8688166 Z M60.6331332,59.629274 C61.4347345,59.6690712 62.2162958,59.5795274 62.977817,59.3606427 C63.7393383,59.141758 64.4507594,58.8631775 65.1120805,58.5249012 C65.7734016,58.1866248 66.3746026,57.8284499 66.9156835,57.4503763 C67.4567644,57.0723027 67.9076651,56.7240771 68.2683857,56.4056994 C70.5529495,54.5750274 72.6270929,52.5155214 74.490816,50.2271814 C76.354539,47.9388414 78.148122,45.6206535 79.8715648,43.2726176 L79.8715648,43.2726176 L79.8715648,43.2129218 L81.6150477,40.8250888 C81.8555281,40.5465083 81.8555281,40.2181812 81.6150477,39.8401076 C81.3745673,39.4620341 81.0539268,39.133707 80.6531261,38.8551265 C80.2523254,38.576546 79.8314848,38.3875092 79.390604,38.2880162 C78.9497233,38.1885231 78.6491228,38.2382696 78.4888025,38.4372557 C78.3284823,38.7158363 78.168162,38.9745182 78.0078418,39.2133015 C77.8475215,39.4520848 77.6070411,39.7306653 77.2864006,40.049043 C76.4046391,41.2827568 75.4727776,42.566217 74.490816,43.8994238 C73.5088544,45.2326306 72.4868127,46.4862429 71.4246909,47.6602608 C70.3625692,48.8342788 69.2703874,49.8789557 68.1481455,50.7942917 C67.0259037,51.7096277 65.8635818,52.3662818 64.6611798,52.764254 L64.6611798,52.764254 L64.2403391,52.764254 C64.2804192,52.7244568 64.3305193,52.6846595 64.3906394,52.6448623 C64.4507594,52.6050651 64.4808195,52.5453693 64.4808195,52.4657748 C64.5609796,51.948411 64.7513599,51.3216048 65.0519604,50.5853563 C65.3525609,49.8491078 65.7032615,49.0631128 66.1040622,48.2273712 C66.5048628,47.3916296 66.9357235,46.5359895 67.3966443,45.6604507 C67.8575651,44.7849119 68.3084658,43.9690689 68.7493465,43.2129218 C68.9497469,42.8547469 69.1501472,42.5065212 69.3505475,42.1682449 C69.5509478,41.8299685 69.7313081,41.5215401 69.8916284,41.2429596 C70.1321088,40.6857985 70.2022489,40.1087389 70.1020487,39.5117806 C70.0018486,38.9148223 69.7914282,38.3278134 69.4707877,37.7507537 C69.1501472,37.1736941 68.7493465,36.646381 68.2683857,36.1688143 C67.7874249,35.6912477 67.2663841,35.273377 66.7052632,34.915202 C66.9858236,35.0345937 67.3164842,35.0942895 67.6972448,35.0942895 C68.0780054,35.0942895 68.448746,35.0644416 68.8094666,35.0047457 C69.1701872,34.9450499 69.4808077,34.8455569 69.7413282,34.7062666 C70.0018486,34.5669763 70.1521488,34.3779396 70.1922289,34.1391563 C70.4327093,33.1044286 70.5830095,32.0597517 70.6431296,31.0051254 C70.7032497,29.9504991 70.6431296,28.9555687 70.4627693,28.0203341 C70.282409,27.0850995 69.9417285,26.2692565 69.4407277,25.5728052 C68.9397268,24.8763539 68.2082656,24.3689394 67.246344,24.0505617 C66.6852231,23.8913728 66.1641823,23.7719812 65.6832215,23.6923867 C65.2022607,23.6127923 64.7012599,23.5729951 64.180219,23.5729951 C62.4166961,23.5729951 60.6431532,23.9510686 58.8595903,24.7072158 C57.0760273,25.4633629 55.3225244,26.4781919 53.5990816,27.7517029 C51.8756388,29.0252138 50.2423761,30.4778123 48.6992935,32.1094982 C47.156211,33.7411841 45.7433887,35.4325658 44.4608266,37.1836434 C43.1782645,38.934721 42.0760626,40.6857985 41.1542211,42.4368761 C40.2323796,44.1879536 39.5710585,45.7997409 39.1702579,47.272238 C38.9698575,47.829399 38.7894972,48.5457489 38.629177,49.4212877 C38.5089368,50.3764209 38.4788767,51.4011993 38.5389968,52.4956228 C38.5991169,53.5900462 38.8496173,54.6148246 39.2904981,55.5699578 C39.7313788,56.525091 40.4027199,57.3508833 41.3045214,58.0473346 C42.2063229,58.7437859 43.4187448,59.171606 44.9417874,59.3307948 C46.6251501,59.2909976 48.388673,58.6641914 50.2323561,57.4503763 C52.0760391,56.2365612 53.8996821,54.7939121 55.7032851,53.1224289 C55.5028847,54.9133037 55.7934652,56.4056994 56.5750265,57.5996159 C57.3565878,58.7935324 58.70929,59.4700851 60.6331332,59.629274 Z M49.8716355,51.8688166 C49.2303544,52.0280054 48.7293536,52.0678027 48.368633,51.9882082 C48.0079124,51.9086138 47.737372,51.7295263 47.5570117,51.4509458 C47.3766514,51.1723653 47.2864712,50.8340889 47.2864712,50.4361168 C47.2864712,50.0381446 47.3265513,49.6202738 47.4067114,49.1825044 C47.4868715,48.5457489 47.6271518,47.8990442 47.8275521,47.2423901 C48.0279524,46.585736 48.2283528,46.0385242 48.4287531,45.6007549 C49.1101142,44.0486634 50.0419757,42.3174844 51.2243377,40.407218 C52.4066996,38.4969516 53.7193218,36.7060768 55.1622042,35.0345937 C56.6050865,33.3631105 58.108089,31.9801572 59.6712116,30.8857337 C61.2343342,29.7913103 62.7573767,29.2639971 64.2403391,29.3037944 C64.7212999,29.3435916 65.1020605,29.4828818 65.382621,29.7216651 C65.6631814,29.9604484 65.8635818,30.2688769 65.983822,30.6469504 C66.1040622,31.025024 66.1641823,31.4329455 66.1641823,31.8707149 C66.1641823,32.3084843 66.1441422,32.726355 66.1040622,33.1243272 C66.0639821,33.2835161 66.0539621,33.442705 66.0740021,33.6018938 C66.0940422,33.7610827 66.0840221,33.900373 66.0439421,34.0197646 C65.9637819,34.2585479 66.023902,34.4774326 66.2243024,34.6764187 C65.6631814,34.358041 65.1120805,34.1391563 64.5709996,34.0197646 C64.0299188,33.900373 63.558978,33.9401702 63.1581773,34.1391563 L63.1581773,34.1391563 L63.2784175,35.0942895 C63.0780172,35.8902338 62.7273166,36.8553163 62.2263158,37.989537 C61.725315,39.1237577 61.1742141,40.2878263 60.5730131,41.4817429 C59.8916519,42.3970789 59.0599906,43.4318065 58.078029,44.5859258 C57.0960673,45.7400451 56.0940657,46.8245193 55.072024,47.8393483 C54.0499823,48.8541774 53.0780407,49.7396655 52.1561992,50.4958126 C51.2343577,51.2519597 50.4728365,51.7096277 49.8716355,51.8688166 Z M94.9617096,24.8266074 C95.5228306,23.5530965 96.0939715,22.4387744 96.6751325,21.4836412 C97.2562934,20.5285079 97.8274344,19.5932733 98.3885553,18.6779373 C98.9496762,17.7626013 99.5007771,16.8671639 100.041858,15.9916252 C100.582939,15.1160864 101.07392,14.1012573 101.5148,12.947138 C101.594961,12.5889631 101.44466,12.0019541 101.0639,11.1861112 C100.683139,10.3702682 100.202178,9.55442526 99.6210173,8.73858231 C99.0398564,7.92273935 98.4186153,7.20638944 97.7572942,6.58953257 C97.0959732,5.9726757 96.5248322,5.70404449 96.0438714,5.78363892 L96.0438714,5.78363892 L94.8414694,7.03725127 C94.600989,8.0321817 94.2803485,9.06690935 93.8795479,10.1414342 C93.4787472,11.2159591 93.0579065,12.2705853 92.6170258,13.305313 C92.1761451,14.3400406 91.7853644,15.3349711 91.4446839,16.2901043 C91.1040033,17.2452375 90.8334629,18.1207763 90.6330625,18.9167206 C90.5529024,19.35449 90.6430825,19.8917525 90.903603,20.5285079 C91.1641234,21.1652634 91.514824,21.7821203 91.9557047,22.3790785 C92.3965854,22.9760368 92.8875662,23.5033499 93.4286471,23.9610179 C93.969728,24.4186859 94.4807489,24.7072158 94.9617096,24.8266074 Z M74.7613564,59.629274 C75.4827976,59.629274 76.2242788,59.5198316 76.9858001,59.3009469 C77.7473213,59.0820622 78.4687625,58.813431 79.1501236,58.4950533 C79.8314848,58.1766755 80.4627458,57.8284499 81.0439067,57.4503763 C81.6250677,57.0723027 82.1160485,56.7439757 82.5168492,56.4653952 C85.0418933,54.4357371 87.5468974,52.0877013 90.0318615,49.4212877 C92.5168256,46.7548742 94.7613093,44.1282578 96.7653126,41.5414387 L96.7653126,41.5414387 L96.7051925,41.6608303 C96.9456729,41.3822498 96.985753,41.0340242 96.8254327,40.6161534 C96.6651124,40.1982826 96.414612,39.820209 96.0739315,39.4819327 C95.7332509,39.1436563 95.3625103,38.904873 94.9617096,38.7655828 C94.560909,38.6262925 94.2402685,38.676039 93.9997881,38.9148223 L93.9997881,38.9148223 L92.9176263,40.3475222 C91.9156246,41.5414387 90.8735429,42.7851017 89.7913811,44.0785113 C88.7092194,45.3719209 87.5969975,46.5956853 86.4547156,47.7498046 C85.3124338,48.9039239 84.1200518,49.9287022 82.8775698,50.8241396 C81.6350877,51.719577 80.3725656,52.3662818 79.0900035,52.764254 L79.0900035,52.764254 L78.6691628,52.764254 C78.4286824,52.764254 78.4286824,52.4757241 78.6691628,51.8986645 C78.9096432,51.3216048 79.3004239,50.5555084 79.8415048,49.6003752 C80.3825857,48.645242 81.0439067,47.5508185 81.825468,46.3171048 C82.6070293,45.083391 83.4286707,43.8198294 84.2903921,42.5264198 C85.1521135,41.2330103 86.0138349,39.9594993 86.8755563,38.705887 C87.7372778,37.4522746 88.5288591,36.3081046 89.2503002,35.273377 C89.5308607,34.8356076 89.8515012,34.358041 90.2122218,33.8406771 C90.5729424,33.3233133 90.893583,32.8656453 91.1741434,32.4676731 C91.4547039,32.069701 91.6751442,31.7513232 91.8354645,31.5125399 C91.9957848,31.2737566 92.0358648,31.1941622 91.9557047,31.2737566 C92.4767456,30.3584206 92.6170258,29.4132367 92.3765454,28.4382049 C92.136065,27.4631731 91.7152243,26.6075329 91.1140233,25.8712844 C90.5128223,25.1350358 89.8114212,24.5778748 89.0098199,24.1998012 C88.2082185,23.8217277 87.5068174,23.7719812 86.9056164,24.0505617 L86.9056164,24.0505617 L86.1240551,24.7669116 C85.442694,26.1598142 84.6110326,27.7019564 83.629071,29.3933381 C82.6471094,31.0847198 81.6350877,32.8258481 80.593006,34.6167229 C78.9898034,37.2433392 77.4367008,39.8699556 75.9336983,42.4965719 C74.4306959,45.1231882 73.278394,47.4314268 72.4767927,49.4212877 L72.4767927,49.4212877 L72.5369128,49.3615919 C71.9357118,50.7146973 71.494831,52.0678027 71.2142706,53.4209081 C70.9337101,55.1719856 71.0639703,56.6345334 71.6050512,57.8085513 C72.1461321,58.9825692 73.1982338,59.5894767 74.7613564,59.629274 Z M93.939668,59.9874489 C95.5027905,60.0670433 96.995773,59.8382093 98.4186153,59.3009469 C99.8414577,58.7636845 101.12402,57.9776894 102.266302,56.9429618 C103.408584,55.9082341 104.360485,54.6446725 105.122006,53.1522768 C105.883528,51.6598812 106.384528,50.018246 106.625009,48.2273712 L106.625009,48.2273712 L107.04585,44.6456216 C107.12601,43.7700829 107.20617,42.9044934 107.28633,42.0488532 C107.36649,41.193213 107.48673,40.3475222 107.647051,39.5117806 C107.927611,37.9994863 108.338432,36.4672935 108.879513,34.915202 C109.420593,33.3631105 110.212175,31.8906135 111.254256,30.4977109 L111.254256,30.4977109 L112.216178,29.3037944 C112.616979,28.7864305 112.987719,28.3387118 113.3284,27.9606383 C113.66908,27.5825647 114.240221,27.0552516 115.041823,26.3786989 L115.041823,26.3786989 L114.861462,26.4383947 C115.703144,25.8414365 116.083904,25.1648838 116.003744,24.4087366 C115.923584,23.6525895 115.612964,22.9262903 115.071883,22.229839 C114.530802,21.5333877 113.859461,20.8966322 113.057859,20.3195725 C112.256258,19.7425129 111.574897,19.2947942 111.013776,18.9764165 C109.009773,20.6081024 107.45667,22.0408022 106.354468,23.2745159 C105.252267,24.5082297 104.280325,25.662349 103.438644,26.7368738 C103.158083,27.0552516 102.897563,27.3736293 102.657082,27.6920071 C102.416602,28.0103848 102.136041,28.3287625 101.815401,28.6471403 C100.292358,30.3982178 98.819416,32.2089912 97.3965736,34.0794604 C95.9737313,35.9499297 94.580949,37.8402975 93.2182268,39.7505639 L93.2182268,39.7505639 L91.534864,41.8996136 C90.2122218,42.8547469 89.06994,44.1282578 88.1080184,45.7201465 C87.1460968,47.3120352 86.5048157,48.9437211 86.1841752,50.6152042 C85.9837749,51.8091208 85.9837749,52.9433414 86.1841752,54.0178663 C86.3845755,55.0923912 86.7953962,56.0475244 87.4166372,56.883266 C88.0378783,57.7190075 88.8895797,58.4154588 89.9717414,58.9726199 C91.0539032,59.5297809 92.3765454,59.8680573 93.939668,59.9874489 Z M95.803391,54.3760413 C95.3224302,54.6546218 94.7813493,54.7541148 94.1801484,54.6745204 C93.6190274,54.594926 93.0579065,54.4058892 92.4967856,54.1074101 C91.9356647,53.8089309 91.514824,53.3413136 91.2342635,52.7045581 C91.1541034,52.4259776 91.0939833,52.1374478 91.0539032,51.8389687 C91.0138231,51.5404895 91.0138231,51.2917569 91.0539032,51.0927708 C91.1741434,50.575407 91.4747439,50.0679925 91.9557047,49.5705273 C92.4366655,49.0730621 92.9777464,48.6850392 93.5789474,48.4064587 C94.1801484,48.1278782 94.7613093,48.0383344 95.3224302,48.1378275 C95.8835512,48.2373205 96.2843518,48.6054448 96.5248322,49.2422002 C96.9256329,48.8840253 97.2162134,48.3169149 97.3965736,47.5408692 C97.5769339,46.7648235 97.6871541,45.9489805 97.7272342,45.0933403 C97.7673143,44.2377002 97.7472742,43.4218572 97.6671141,42.6458115 C97.586954,41.8697657 97.5067938,41.322554 97.4266337,41.0041763 L97.4266337,41.0041763 L97.4867538,40.9444804 L100.011798,37.6015142 C99.9316378,37.9198919 99.8514777,38.248219 99.7713176,38.5864953 C99.6911574,38.9247716 99.6310373,39.2530987 99.5909573,39.5714764 C99.3905569,40.5266096 99.2602967,41.4618443 99.2001766,42.3771802 C99.1400565,43.2925162 99.0699164,44.168055 98.9897563,45.0037966 C98.9095961,46.5956853 98.7893559,48.1079795 98.6290357,49.5406794 C98.5087955,50.2570293 98.3184152,50.933582 98.0578947,51.5703375 C97.7973743,52.2070929 97.4767338,52.764254 97.0959732,53.2418206 C96.7152125,53.7193872 96.2843518,54.0974607 95.803391,54.3760413 Z M95.6230307,85 C100.152078,85 104.120005,83.985171 107.52681,81.9555129 C110.933616,79.9258548 114.119981,77.0803538 117.085906,73.4190098 L117.085906,73.4190098 L120.152031,76.1053219 L122.376475,78.13498 C122.616955,78.2941689 123.007736,78.3339661 123.548817,78.2543717 C124.089898,78.1747772 124.691099,77.9956898 125.35242,77.7171092 C126.013741,77.4385287 126.675062,77.1102017 127.336383,76.7321281 C127.997704,76.3540545 128.548805,75.9461331 128.989686,75.5083637 C129.430566,75.0705943 129.721147,74.6328249 129.861427,74.1950555 C130.001707,73.7572861 129.871447,73.3792125 129.470646,73.0608348 C129.310326,72.9414432 129.170046,72.8021529 129.049806,72.642964 C128.929566,72.4837752 128.809325,72.3444849 128.689085,72.2250932 L128.689085,72.2250932 L128.689085,72.3444849 C127.566843,71.3495545 126.444601,70.3844719 125.32236,69.4492373 C124.200118,68.5140027 123.037796,67.6285146 121.835394,66.7927731 C122.997716,65.0018983 124.150018,63.1115305 125.2923,61.1216696 C126.434581,59.1318087 127.606923,57.0225562 128.809325,54.7939121 L128.809325,54.7939121 L141.675026,31.2140608 C142.075827,30.2987248 142.105887,29.3734395 141.765207,28.4382049 C141.424526,27.5029703 140.893465,26.677178 140.172024,25.9608281 C139.450583,25.2444782 138.659002,24.7171651 137.79728,24.3788887 C136.935559,24.0406124 136.204097,24.0107645 135.602897,24.289345 C134.440575,26.9557585 133.268233,29.5326284 132.085871,32.0199544 C130.903509,34.5072805 129.751207,36.845367 128.628965,39.034214 L128.628965,39.034214 L127.606923,40.3475222 L127.667043,40.3475222 C126.785282,41.5812359 125.86344,42.8447976 124.901519,44.1382071 C123.939597,45.4316167 122.937596,46.6454318 121.895514,47.7796525 C120.853432,48.9138732 119.77127,49.9287022 118.649029,50.8241396 C117.526787,51.719577 116.384505,52.3662818 115.222183,52.764254 L115.222183,52.764254 L114.681102,52.764254 C114.681102,52.764254 114.761262,52.6050651 114.921582,52.2866874 C115.041823,51.4509458 115.412563,50.3266744 116.033804,48.9138732 C116.655045,47.501072 117.386507,45.998727 118.228188,44.4068383 C119.069869,42.8149496 119.961651,41.2131116 120.903532,39.6013243 C121.845414,37.989537 122.717155,36.5269893 123.518757,35.2136811 L123.518757,35.2136811 L123.458637,35.273377 C124.019757,34.358041 124.500718,33.542198 124.901519,32.8258481 C125.30232,32.1094982 125.60292,31.5722357 125.80332,31.2140608 C126.204121,30.2987248 126.254221,29.3634902 125.953621,28.408357 C125.65302,27.4532238 125.172059,26.5975836 124.510738,25.8414365 C123.849417,25.0852893 123.107936,24.5281283 122.286295,24.1699533 C121.464653,23.8117784 120.753232,23.7719812 120.152031,24.0505617 L120.152031,24.0505617 L119.43059,24.8863032 C118.909549,26.120017 118.208148,27.6621591 117.326386,29.5127297 C116.444625,31.3633004 115.502743,33.3034147 114.500742,35.3330728 C113.899541,36.6065837 113.2783,37.890044 112.637019,39.1834536 C111.995738,40.4768631 111.374497,41.7304755 110.773296,42.9442906 C110.172095,44.1581057 109.631014,45.3321236 109.150053,46.4663443 C108.669092,47.600565 108.268292,48.6054448 107.947651,49.4809835 C107.787331,49.9187529 107.657071,50.3963195 107.55687,50.9136834 C107.45667,51.4310472 107.36649,51.9086138 107.28633,52.3463832 C106.965689,54.3362441 107.09595,56.0276258 107.677111,57.4205284 C108.258272,58.813431 109.410573,59.5496795 111.134016,59.629274 C111.895538,59.629274 112.657059,59.5198316 113.41858,59.3009469 C114.180101,59.0820622 114.901542,58.813431 115.582904,58.4950533 C116.264265,58.1766755 116.885506,57.8284499 117.446627,57.4503763 C118.007748,57.0723027 118.468668,56.7240771 118.829389,56.4056994 L118.829389,56.4056994 L119.911551,55.510262 C119.150029,56.8235701 118.398528,58.1070304 117.657047,59.3606427 C116.915566,60.6142551 116.164065,61.8778167 115.402543,63.1513277 C114.641022,62.83295 113.889521,62.5444201 113.14804,62.2857382 C112.406558,62.0270563 111.635017,61.8081716 110.833416,61.6290841 C110.031814,61.4499967 109.140033,61.3107064 108.158071,61.2112133 C107.17611,61.1117203 106.063888,61.0619738 104.821406,61.0619738 C102.576922,61.0619738 100.372519,61.430098 98.208195,62.1663466 C96.0438714,62.9025951 94.0699282,63.9373227 92.2863652,65.2705295 C90.5028023,66.6037363 88.9997998,68.1757264 87.7773578,69.9864998 C86.5549158,71.7972732 85.7633345,73.7572861 85.4026139,75.8665386 C85.1220535,77.5380218 85.2322736,78.950823 85.7332745,80.1049423 C86.2342753,81.2590616 86.9757565,82.1942962 87.9577181,82.9106461 C88.9396797,83.626996 90.1020016,84.1543091 91.4446839,84.4925855 C92.7873661,84.8308618 94.1801484,85 95.6230307,85 Z M95.4426704,80.2243339 C94.7613093,80.2243339 94.0599082,80.1546888 93.338467,80.0153985 C92.6170258,79.8761083 91.9757447,79.637325 91.4146238,79.2990486 C90.8535029,78.9607723 90.4126222,78.5031043 90.0919816,77.9260446 C89.7713411,77.348985 89.691181,76.6027871 89.8515012,75.6874511 C90.0118215,74.374143 90.5829624,73.2399223 91.5649241,72.2847891 C92.5468857,71.3296559 93.7092076,70.5337115 95.0518898,69.896956 C96.394572,69.2602005 97.8474744,68.7925832 99.410597,68.4941041 C100.97372,68.195625 102.416602,68.0463854 103.739244,68.0463854 C106.464689,68.0861826 108.849452,68.5637492 110.893536,69.4790852 C109.691134,71.0709739 108.458672,72.5235724 107.19615,73.8368805 C105.933628,75.1501887 104.661086,76.2844094 103.378523,77.2395426 C102.095961,78.1946758 100.793359,78.9309244 99.4707171,79.4482882 C98.1480749,79.965652 96.8053927,80.2243339 95.4426704,80.2243339 Z" id="path-1"></path>
        <filter x="-4.3%" y="-7.4%" width="108.7%" height="114.8%" filterUnits="objectBoundingBox" id="filter-2">
            <feMorphology radius="2" operator="dilate" in="SourceAlpha" result="shadowSpreadOuter1"></feMorphology>
            <feOffset dx="0" dy="0" in="shadowSpreadOuter1" result="shadowOffsetOuter1"></feOffset>
            <feColorMatrix values="0 0 0 0 1   0 0 0 0 1   0 0 0 0 1  0 0 0 1 0" type="matrix" in="shadowOffsetOuter1"></feColorMatrix>
        </filter>
        <path d="M164.596439,59 C170.212661,59 174.374382,57.6412903 177.081602,54.923871 C179.788823,52.2064516 181.142433,47.8954839 181.142433,41.9909677 L181.142433,41.9909677 L181.142433,20 L171.305638,20 L171.305638,40.6322581 C171.305638,41.7393548 171.2636,42.8716129 171.179525,44.0290323 C171.09545,45.1864516 170.834817,46.2348387 170.397626,47.1741935 C169.960435,48.1135484 169.296241,48.8767742 168.405045,49.463871 C167.513848,50.0509677 166.244313,50.3445161 164.596439,50.3445161 C162.948566,50.3445161 161.670623,50.0509677 160.762611,49.463871 C159.854599,48.8767742 159.190406,48.1135484 158.77003,47.1741935 C158.349654,46.2348387 158.097428,45.1864516 158.013353,44.0290323 C157.929278,42.8716129 157.88724,41.7393548 157.88724,40.6322581 L157.88724,40.6322581 L157.88724,20 L148,20 L148,41.9909677 C148,47.8954839 149.362018,52.2064516 152.086053,54.923871 C154.810089,57.6412903 158.980218,59 164.596439,59 Z M199,57.9432258 L199,20 L189.11276,20 L189.11276,57.9432258 L199,57.9432258 Z" id="path-3"></path>
        <filter x="-11.8%" y="-15.4%" width="123.5%" height="130.8%" filterUnits="objectBoundingBox" id="filter-4">
            <feMorphology radius="2" operator="dilate" in="SourceAlpha" result="shadowSpreadOuter1"></feMorphology>
            <feOffset dx="0" dy="0" in="shadowSpreadOuter1" result="shadowOffsetOuter1"></feOffset>
            <feColorMatrix values="0 0 0 0 1   0 0 0 0 1   0 0 0 0 1  0 0 0 1 0" type="matrix" in="shadowOffsetOuter1"></feColorMatrix>
        </filter>
    </defs>
    <g stroke="none" stroke-width="1" fill="none" fill-rule="evenodd">
        <g id="daisy" fill-rule="nonzero">
            <use fill="black" fill-opacity="1" filter="url(#filter-2)" xlink:href="#path-1"></use>
            <use fill="#2D3748" xlink:href="#path-1"></use>
        </g>
        <g fill-rule="nonzero">
            <use fill="black" fill-opacity="1" filter="url(#filter-4)" xlink:href="#path-3"></use>
            <use fill="#5A0EF8" xlink:href="#path-3"></use>
        </g>
    </g>
</svg>