<?xml version="1.0" encoding="UTF-8"?>
<svg width="280px" height="60px" viewBox="0 0 653 118" version="1.1" xmlns="http://www.w3.org/2000/svg" xmlns:xlink="http://www.w3.org/1999/xlink">
    <g stroke="none" stroke-width="1" fill="none" fill-rule="evenodd">
        <path d="M541,116 C509.896474,116 488,94.1545667 488,63.1188811 L488,5 L531,5 L531,63.1188811 C531,70.051927 535.182396,74.5874126 541,74.5874126 C546.817604,74.5874126 551,70.051927 551,63.1188811 L551,5 L594,5 L594,63.1188811 C594,94.1545667 572.103526,116 541,116 Z M651,113.755245 L608,113.755245 L608,5 L651,5 L651,113.755245 Z" stroke="#FFFFFF" stroke-width="4" fill="#2D3748" fill-rule="nonzero"></path>
        <path d="M48.9765258,115.246575 C38.4488243,115.246575 27.7372516,114.963257 17.4016811,114.491067 C13.7841496,114.325796 10.471521,114.148696 7.53395058,113.971544 C6.50501204,113.909494 5.5961929,113.851849 4.81626724,113.800082 C4.34705175,113.768939 4.02429869,113.746618 3.85678424,113.734592 L2,113.601289 L2,4.39871084 L3.85678424,4.26540825 C4.02429869,4.25338202 4.34705175,4.2310612 4.81626724,4.19991753 C5.5961929,4.14815082 6.50501204,4.0905062 7.53395058,4.02845562 C10.471521,3.85130417 13.7841496,3.67420356 17.4016811,3.50893326 C27.7372516,3.03674308 38.4488243,2.75342466 48.9765258,2.75342466 C88.4894656,2.75342466 110.945227,24.0977818 110.945227,59 C110.945227,93.9022182 88.4894656,115.246575 48.9765258,115.246575 Z M44.9796557,39.9041096 L44.9796557,78.0958904 L48.9765258,78.0958904 C59.4240076,78.0958904 64.9671362,71.8492298 64.9671362,59 C64.9671362,46.1507702 59.4240076,39.9041096 48.9765258,39.9041096 L44.9796557,39.9041096 Z M177.767213,98.6712329 L161.55986,98.6712329 L158.561425,113.739726 L110.776962,113.739726 L142.676417,4.26027397 L196.713707,4.26027397 L197.091097,5.777516 C197.145365,5.99569533 203.210027,26.8184973 212.427257,58.4389991 C212.432142,58.4557557 212.432142,58.4557557 212.437026,58.4725123 C215.798598,70.0046689 219.400285,82.3584698 223.001972,94.7108771 C224.262563,99.034221 225.433112,103.04858 226.483604,106.651074 C227.068878,108.658165 227.068878,108.658165 227.45906,109.996194 C227.744192,110.973972 227.744192,110.973972 227.804219,111.17981 L228.550739,113.739726 L180.765648,113.739726 L177.767213,98.6712329 Z M172.486796,70.5616438 L169.663537,55.9681126 L166.840278,70.5616438 L172.486796,70.5616438 Z M277.358372,4.26027397 L277.358372,113.739726 L234.378717,113.739726 L234.378717,4.26027397 L277.358372,4.26027397 Z M332.328638,116 C317.528744,116 305.366442,112.507367 295.689387,106.671578 C292.281272,104.6163 289.425338,102.408244 287.09736,100.191564 C285.677574,98.8396565 284.73683,97.7663486 284.249977,97.1139079 L283.428744,96.0133558 L299.692403,70.2031714 L301.460071,71.8529324 C301.518999,71.9079298 301.656073,72.0300458 301.868212,72.2097022 C302.235219,72.5205137 302.671319,72.8699291 303.173382,73.2483939 C304.620641,74.3393633 306.29576,75.4337335 308.173054,76.4557772 C313.521127,79.3673966 319.387913,81.109589 325.58216,81.109589 C328.052676,81.109589 329.57903,79.8543974 329.57903,78.5890411 C329.57903,78.5175829 329.505889,78.3759096 329.221779,78.1049222 C328.789843,77.6929371 328.065911,77.2274189 327.030607,76.707132 C325.849047,76.1133442 314.36867,71.6133371 310.441529,69.639771 C296.76386,62.7661235 289.100156,53.1139547 289.100156,37.9041096 C289.100156,18.1347439 308.028351,2 333.827856,2 C346.020519,2 356.497934,5.21772939 365.233768,10.5834708 C368.299807,12.466699 370.931909,14.4875681 373.131974,16.5145605 C374.469993,17.747321 375.378005,18.7233328 375.857789,19.3127209 L376.764456,20.4265108 L360.475631,46.276633 L358.708988,44.6489669 C358.657774,44.6017814 358.540655,44.4979153 358.361444,44.3455032 C358.052062,44.0823858 357.688003,43.7867616 357.273142,43.4667594 C356.079497,42.5460428 354.727309,41.623217 353.248809,40.7628859 C349.077915,38.3358657 344.763514,36.890411 340.574335,36.890411 C338.103818,36.890411 336.577465,38.1456026 336.577465,39.4109589 C336.577465,39.4824171 336.650606,39.6240904 336.934716,39.8950778 C337.366652,40.3070629 338.090584,40.7725811 339.125887,41.292868 C340.307448,41.8866558 351.787824,46.3866629 355.714966,48.360229 C369.392634,55.2338765 377.056338,64.8860453 377.056338,80.0958904 C377.056338,99.8652561 358.128143,116 332.328638,116 Z M406.039124,71.5728485 L368.659596,4.26027397 L418.455768,4.26027397 L427.528951,30.3156199 L436.602135,4.26027397 L486.398307,4.26027397 L449.018779,71.5728485 L449.018779,113.739726 L406.039124,113.739726 L406.039124,71.5728485 Z" stroke="#FFFFFF" stroke-width="4" fill="#5A0EF8" fill-rule="nonzero"></path>
    </g>
</svg>